{"title":"Match of the Day 2 - S10E02 - 16th August 2015 - 720p50 x264","uid":12240459,"size":1767279063,"categoryP":"video","categoryS":"hd___tv_shows","magnet":"?xt=urn:btih:a91133f40e27fdeda1d71d911666b7f2f714ab71&amp;dn=Match+of+the+Day+2+-+S10E02+-+16th+August+2015+-+720p50+x264&amp;tr=udp%3A%2F%2Ftracker.openbittorrent.com%3A80&amp;tr=udp%3A%2F%2Fopen.demonii.com%3A1337&amp;tr=udp%3A%2F%2Ftracker.coppersurfer.tk%3A6969&amp;tr=udp%3A%2F%2Fexodus.desync.com%3A6969","seeders":2,"leechers":0,"uploader":"rugbybill","files":2,"time":1439771828,"description":"SPORT: Match of the Day 2\nOn: BBC 1 HD  \nDate: Sunday 16th August 2015 \nTime: 22:30 to 23:30 \n\nHighlights and analysis of the day's two Premier League matches, plus a round-up of the weekend's earlier action, introduced by Mark Chapman. Champions Chelsea are unbeaten in the Premier League against last season's runners-up Manchester City since Jose Mourinho returned to the west London club. Mourinho will be looking to extend that run to five games, and with it steal an early march in the fledgling title race. Crystal Palace invested heavily in new signings over the summer, including one-time Arsenal target Yohan Cabaye. The Eagles' new arrivals are sure of a warm reception from the Selhurst Park faithful ahead of their home league debuts as Arsene Wenger's Gunners make the short trip across London.\n\n\nGeneral\nComplete name               : Match.of.the.Day.2-S10E02-2015.08.16-720p50.x264.mp4\nFormat                      : MPEG-4\nFormat profile              : Base Media / Version 2\nCodec ID                    : mp42\nFile size                   : 1.65 GiB\nDuration                    : 1h 0mn\nOverall bit rate mode       : Variable\nOverall bit rate            : 3 896 Kbps\nWriting application         : #YGFD                     \n\nVideo\nID                          : 1\nFormat                      : AVC\nFormat/Info                 : Advanced Video Codec\nFormat profile              : &lt;a class=&quot;__cf_email__&quot; href=&quot;/cdn-cgi/l/email-protection&quot; data-cfemail=&quot;1f577678775f532c312d&quot;&gt;[email&amp;#160;protected]&lt;/a&gt;&lt;script data-cfhash='f9e31' type=&quot;text/javascript&quot;&gt;\n/* &lt;![CDATA[ */!function(){try{var t=&quot;currentScript&quot;in document?document.currentScript:function(){for(var t=document.getElementsByTagName(&quot;script&quot;),e=t.length;e--;)if(t[e].getAttribute(&quot;data-cfhash&quot;))return t[e]}();if(t&amp;&amp;t.previousSibling){var e,r,n,i,c=t.previousSibling,a=c.getAttribute(&quot;data-cfemail&quot;);if(a){for(e=&quot;&quot;,r=parseInt(a.substr(0,2),16),n=2;a.length-n;n+=2)i=parseInt(a.substr(n,2),16)^r,e+=String.fromCharCode(i);e=document.createTextNode(e),c.parentNode.replaceChild(e,c)}t.parentNode.removeChild(t);}}catch(u){}}()/* ]]&gt; */&lt;/script&gt;\nFormat settings, CABAC      : Yes\nFormat settings, ReFrames   : 5 frames\nCodec ID                    : avc1\nCodec ID/Info               : Advanced Video Coding\nDuration                    : 1h 0mn\nBit rate                    : 3 728 Kbps\nWidth                       : 1 280 pixels\nHeight                      : 720 pixels\nDisplay aspect ratio        : 16:9\nFrame rate mode             : Constant\nFrame rate                  : 50.000 fps\nColor space                 : YUV\nChroma subsampling          : 4:2:0\nBit depth                   : 8 bits\nScan type                   : Progressive\nBits/(Pixel*Frame)          : 0.081\nStream size                 : 1.58 GiB (96%)\nWriting library             : x264 core 130 r2273 b3065e6\nEncoding settings           : cabac=1 / ref=5 / deblock=1:0:0 / analyse=0x3:0x113 / me=umh / subme=8 / psy=1 / psy_rd=1.00:0.00 / mixed_ref=1 / me_range=16 / chroma_me=1 / trellis=1 / 8x8dct=1 / cqm=0 / deadzone=21,11 / fast_pskip=1 / chroma_qp_offset=-2 / threads=24 / lookahead_threads=4 / sliced_threads=0 / nr=0 / decimate=1 / interlaced=0 / bluray_compat=0 / constrained_intra=0 / bframes=3 / b_pyramid=2 / b_adapt=2 / b_bias=0 / direct=3 / weightb=1 / open_gop=0 / weightp=2 / keyint=500 / keyint_min=50 / scenecut=40 / intra_refresh=0 / rc_lookahead=50 / rc=crf / mbtree=1 / crf=23.0 / qcomp=0.60 / qpmin=0 / qpmax=69 / qpstep=4 / ip_ratio=1.40 / aq=1:1.00\n\nAudio\nID                          : 2\nFormat                      : AAC\nFormat/Info                 : Advanced Audio Codec\nFormat profile              : LC\nCodec ID                    : 40\nDuration                    : 1h 0mn\nBit rate mode               : Variable\nBit rate                    : 160 Kbps\nMaximum bit rate            : 313 Kbps\nChannel(s)                  : 2 channels\nChannel positions           : Front: L R\nSampling rate               : 48.0 KHz\nCompression mode            : Lossy\nStream size                 : 69.2 MiB (4%)\nTitle                       : Stereo\nLanguage                    : English","torrent":{"xt":"urn:btih:a91133f40e27fdeda1d71d911666b7f2f714ab71","amp;dn":"Match+of+the+Day+2+-+S10E02+-+16th+August+2015+-+720p50+x264","amp;tr":["udp%3A%2F%2Ftracker.openbittorrent.com%3A80","udp%3A%2F%2Fopen.demonii.com%3A1337","udp%3A%2F%2Ftracker.coppersurfer.tk%3A6969","udp%3A%2F%2Fexodus.desync.com%3A6969"],"infoHash":"a91133f40e27fdeda1d71d911666b7f2f714ab71","infoHashBuffer":{"type":"Buffer","data":[169,17,51,244,14,39,253,237,161,215,29,145,22,102,183,242,247,20,171,113]},"announce":[],"urlList":[]}}